<svg width="28" height="27" viewBox="0 0 28 27" fill="none" xmlns="http://www.w3.org/2000/svg">
<path d="M15.8626 9.21593C15.7313 7.53101 15.0506 6.00258 14 4.81406C12.8267 6.14135 12.1125 7.89171 12.1125 9.81144C12.1125 11.7312 12.8267 13.4815 14 14.8088M14 14.8088C14.1768 16.5794 13.7361 18.4194 12.6193 19.9725C11.5024 21.5254 9.90616 22.5176 8.18475 22.8946C8.02604 21.309 8.3648 19.668 9.23894 18.2272M14 14.8088C14.8873 13.2713 16.3139 12.0443 18.1217 11.4511C19.9286 10.8579 21.7971 11.003 23.4091 11.7202C22.6152 13.0973 21.3861 14.2237 19.8406 14.8702M17.2635 8.64717C16.9606 6.28821 15.7521 4.21681 14 2.80117C11.9646 4.44566 10.6597 6.97399 10.6597 9.81144C10.6597 11.8751 11.3524 13.7733 12.512 15.2889M18.6839 8.29744C18.2423 5.23018 16.4807 2.59599 14 1C11.1194 2.85333 9.20693 6.10555 9.20693 9.81125C9.20693 11.8861 9.80689 13.8185 10.8403 15.4434M9.31038 11.2908C7.68367 10.896 6.03428 11.0777 4.59066 11.7202C5.47756 13.2573 6.90499 14.4845 8.71213 15.0777C10.5193 15.6709 12.388 15.5256 14.0002 14.8086C15.7218 15.1859 17.318 16.1779 18.4349 17.7311C19.5516 19.2838 19.9924 21.1243 19.8154 22.8946C18.2735 22.557 16.8333 21.7244 15.7469 20.4393M9.20769 9.76909C6.89336 9.33141 4.56989 9.85244 2.69549 11.0981C3.61459 13.5618 5.59169 15.5968 8.26306 16.4737C10.2059 17.1114 12.207 17.0325 13.992 16.3867M9.31724 8.29648C6.29321 7.77314 3.26917 8.6514 1 10.5417C1.8547 13.8819 4.32545 16.7245 7.81418 17.8695C9.76765 18.5107 11.7724 18.5315 13.6212 18.0408M7.77455 17.8559C6.6472 19.9442 6.41972 22.3372 7.0134 24.5233C9.61656 24.4015 12.1437 23.131 13.7946 20.8354C14.9953 19.1658 15.5395 17.2188 15.4831 15.3042M6.422 17.2954C4.99496 20.0391 4.88712 23.2161 5.9655 25.9804C9.3744 26.1913 12.8138 24.6958 14.97 21.698C16.1771 20.0191 16.8162 18.0995 16.9257 16.1713M14.9446 21.7315C16.5624 23.4599 18.7449 24.4181 20.9864 24.5232C21.6763 21.9846 21.261 19.1637 19.6101 16.8685C18.4092 15.199 16.7443 14.0743 14.9244 13.5368M13.999 22.8579C16.1411 25.0769 19.0989 26.1623 22.0345 25.9804C23.2865 22.7703 22.9414 19.0038 20.7854 16.0058C19.5779 14.3271 17.9681 13.1203 16.1867 12.4189M20.8092 16.0405C22.9365 15.0202 24.5129 13.2194 25.3043 11.0983C23.1276 9.65072 20.3438 9.1782 17.6726 10.0551C15.7298 10.6928 14.1566 11.945 13.088 13.5273M21.5772 17.2969C24.3284 15.9244 26.264 13.4184 27 10.5413C24.3648 8.34671 20.7121 7.51427 17.2235 8.65929C15.2701 9.30061 13.6365 10.4745 12.4257 11.9691" stroke="white" stroke-width="0.5" stroke-miterlimit="10" stroke-linecap="round" stroke-linejoin="round"/>
</svg>
