<svg width="42" height="46" viewBox="0 0 42 46" fill="none" xmlns="http://www.w3.org/2000/svg">
<path d="M35.1825 16.8001L4.46671 35.3226C2.65837 36.4076 0.333374 35.1159 0.333374 32.9976V12.3309C0.333374 3.31506 10.0725 -2.3166 17.9 2.1784L29.7575 8.9984L35.1567 12.0984C36.9392 13.1576 36.965 15.7409 35.1825 16.8001Z" fill="white"/>
<path d="M36.7325 31.9385L26.27 37.9835L15.8334 44.0026C12.0875 46.1468 7.85087 45.7076 4.77671 43.5377C3.27837 42.5043 3.45921 40.2051 5.03504 39.2751L37.8692 19.5902C39.4192 18.6602 41.46 19.5385 41.7442 21.321C42.39 25.3252 40.7367 29.6393 36.7325 31.9385Z" fill="white"/>
</svg>
